<svg width="48" height="48" viewBox="0 0 48 48" fill="none" xmlns="http://www.w3.org/2000/svg">
<path d="M42.003 13.429C40.68 14.015 39.257 14.406 37.756 14.591C39.282 13.685 40.456 12.24 41.007 10.533C39.579 11.37 37.997 11.985 36.314 12.309C34.97 10.884 33.053 10 30.929 10C26.849 10 23.542 13.278 23.542 17.32C23.542 17.892 23.609 18.449 23.735 18.99C17.597 18.682 12.153 15.764 8.511 11.336C7.871 12.418 7.511 13.685 7.511 15.022C7.511 17.563 8.812 19.8 10.796 21.118C9.585 21.081 8.445 20.744 7.447 20.204C7.447 20.226 7.447 20.259 7.447 20.29C7.447 23.841 9.994 26.798 13.37 27.471C12.753 27.64 12.101 27.734 11.429 27.734C10.952 27.734 10.487 27.68 10.037 27.599C10.977 30.501 13.704 32.622 16.935 32.685C14.407 34.645 11.223 35.819 7.761 35.819C7.163 35.819 6.578 35.785 6 35.715C9.271 37.786 13.155 39 17.324 39C30.909 39 38.341 27.844 38.341 18.166C38.341 17.849 38.331 17.533 38.316 17.221C39.766 16.197 41.016 14.905 42.003 13.429Z" fill="#03A9F4"/>
</svg>
